<svg width="200" height="200" viewBox="50 50 150 150" xmlns="http://www.w3.org/2000/svg">
  <defs>
    <linearGradient id="mainGrad" x1="0%" y1="0%" x2="100%" y2="100%">
      <stop offset="0%" style="stop-color:#F2C811;stop-opacity:1" />
      <stop offset="33%" style="stop-color:#E97C07;stop-opacity:1" />
      <stop offset="66%" style="stop-color:#E94F1C;stop-opacity:1" />
      <stop offset="100%" style="stop-color:#C42021;stop-opacity:1" />
    </linearGradient>
  </defs>
  
  <path d="
 
    M 100 80 L 100 53
    M 105 83 L 127 69
    M 105 87 L 127 101
    M 100 90 L 100 117
    M 95 87 L 73 101
    M 95 83 L 73 68
    M 97 50 A 3 3 0 1 0 103 50 A 3 3 0 1 0 97 50
    M 127 67.5 A 3 3 0 1 0 133 67.5 A 3 3 0 1 0 127 67.5
    M 127 102.5 A 3 3 0 1 0 133 102.5 A 3 3 0 1 0 127 102.5
    M 97 120 A 3 3 0 1 0 103 120 A 3 3 0 1 0 97 120
    M 67 102.5 A 3 3 0 1 0 73 102.5 A 3 3 0 1 0 67 102.5
    M 67 67.5 A 3 3 0 1 0 73 67.5 A 3 3 0 1 0 67 67.5
    M 92 85 A 8 8 0 1 0 108 85 A 8 8 0 1 0 92 85
  "
  fill="none"
  stroke="url(#mainGrad)"
  stroke-width="1.5"
  stroke-linecap="round"
  stroke-linejoin="round"/>
</svg>